<svg xmlns="http://www.w3.org/2000/svg" xmlns:xlink="http://www.w3.org/1999/xlink" viewBox="0 0 560 1118" width="560" height="1118" font-family="Segoe UI, -apple-system, Helvetica, Arial, sans-serif"><defs><marker id="arrow" viewBox="0 0 10 10" refX="9" refY="5" markerWidth="7" markerHeight="7" orient="auto-start-reverse"><path d="M0 0 L10 5 L0 10 z" fill="#5f6368"/></marker><marker id="arrow-critical" viewBox="0 0 10 10" refX="9" refY="5" markerWidth="7" markerHeight="7" orient="auto-start-reverse"><path d="M0 0 L10 5 L0 10 z" fill="#d13438"/></marker><marker id="arrow-warning" viewBox="0 0 10 10" refX="9" refY="5" markerWidth="7" markerHeight="7" orient="auto-start-reverse"><path d="M0 0 L10 5 L0 10 z" fill="#ca5010"/></marker><marker id="arrow-info" viewBox="0 0 10 10" refX="9" refY="5" markerWidth="7" markerHeight="7" orient="auto-start-reverse"><path d="M0 0 L10 5 L0 10 z" fill="#0078d4"/></marker><marker id="arrow-ok" viewBox="0 0 10 10" refX="9" refY="5" markerWidth="7" markerHeight="7" orient="auto-start-reverse"><path d="M0 0 L10 5 L0 10 z" fill="#107c10"/></marker><symbol id="icon-application-insights" viewBox="0 0 18 18"><defs><radialGradient id="a7a1c431-6c6d-4a8f-9a69-8da437e5b0c5" cx="9" cy="7.35" r="6.42" gradientUnits="userSpaceOnUse"><stop offset="0" stop-color="#b77af4"/><stop offset="0.21" stop-color="#b378f2"/><stop offset="0.43" stop-color="#a672ed"/><stop offset="0.65" stop-color="#9267e4"/><stop offset="0.88" stop-color="#7559d8"/><stop offset="1" stop-color="#624fd0"/></radialGradient><linearGradient id="ec0c4f0d-5c8e-4882-96a1-89d61808eb49" x1="9.02" y1="3.91" x2="9.08" y2="11.49" gradientUnits="userSpaceOnUse"><stop offset="0" stop-color="#f2f2f2"/><stop offset="0.23" stop-color="#f1f1f2" stop-opacity="0.99"/><stop offset="0.37" stop-color="#ededf1" stop-opacity="0.95"/><stop offset="0.48" stop-color="#e7e5f0" stop-opacity="0.89"/><stop offset="0.58" stop-color="#dedbee" stop-opacity="0.81"/><stop offset="0.67" stop-color="#d3ceeb" stop-opacity="0.7"/><stop offset="0.76" stop-color="#c4bee8" stop-opacity="0.57"/><stop offset="0.84" stop-color="#b4abe5" stop-opacity="0.41"/><stop offset="0.92" stop-color="#a095e1" stop-opacity="0.22"/><stop offset="0.99" stop-color="#8b7ddc" stop-opacity="0.02"/><stop offset="1" stop-color="#897bdc" stop-opacity="0"/></linearGradient></defs><title>Icon-manage-310</title><path d="M10.23,17.39l.81-.87V14.2H7v2.32l.81.87A.32.32,0,0,0,8,17.5h2A.32.32,0,0,0,10.23,17.39Z" fill="#cecece"/><path d="M9,.5A5.89,5.89,0,0,0,3.09,7.07c.27,2.47,2.62,3.62,3.29,6.75a.49.49,0,0,0,.47.38h4.3a.49.49,0,0,0,.47-.38c.67-3.13,3-4.28,3.29-6.75A5.89,5.89,0,0,0,9,.5ZM7,14.2" fill="url(#a7a1c431-6c6d-4a8f-9a69-8da437e5b0c5)"/><path d="M11.46,3.79a1.4,1.4,0,0,0-1.35,1.44V6H8V5.23A1.41,1.41,0,0,0,6.59,3.79,1.4,1.4,0,0,0,5.24,5.23,1.41,1.41,0,0,0,6.59,6.68h.64v6a.36.36,0,0,0,.72,0v-6h2.16v6a.36.36,0,1,0,.72,0v-6h.63a1.4,1.4,0,0,0,1.35-1.45A1.4,1.4,0,0,0,11.46,3.79ZM7.23,6H6.55a.74.74,0,0,1-.68-.77.74.74,0,0,1,.68-.77.74.74,0,0,1,.68.77Zm4.28,0h-.68V5.19a.68.68,0,1,1,1.35,0A.73.73,0,0,1,11.51,6Z" fill="url(#ec0c4f0d-5c8e-4882-96a1-89d61808eb49)"/><polygon points="6.96 15.8 11.04 15.01 11.04 14.56 6.96 15.36 6.96 15.8" fill="#999"/><polygon points="11.04 16.11 11.04 15.67 6.96 16.48 6.96 16.52 7.27 16.86 11.04 16.11" fill="#999"/></symbol><symbol id="icon-application-gateways" viewBox="0 0 18 18"><defs><linearGradient id="f6d5399b-a5cb-4c09-96cc-9e3bb1af2386" x1="9" y1="19.25" x2="9" y2="-0.46" gradientTransform="translate(9 -3.73) rotate(45)" gradientUnits="userSpaceOnUse"><stop offset="0" stop-color="#5e9624"/><stop offset="0.55" stop-color="#6dad2a"/><stop offset="1" stop-color="#76bc2d"/></linearGradient><linearGradient id="a43242a2-4d95-4f6d-8870-2702ceb6aebc" x1="7.54" y1="6.44" x2="7.53" y2="5.18" gradientUnits="userSpaceOnUse"><stop offset="0" stop-color="#ccc"/><stop offset="0.12" stop-color="#d7d7d7"/><stop offset="0.42" stop-color="#ebebeb"/><stop offset="0.72" stop-color="#f8f8f8"/><stop offset="1" stop-color="#fcfcfc"/></linearGradient><linearGradient id="eedce6dd-706a-43c4-ac66-66b73578221d" x1="9.36" y1="7.69" x2="9.36" y2="6.57" href="#a43242a2-4d95-4f6d-8870-2702ceb6aebc"/></defs><rect x="2.82" y="2.82" width="12.35" height="12.35" rx="0.57" transform="translate(-3.73 9) rotate(-45)" fill="url(#f6d5399b-a5cb-4c09-96cc-9e3bb1af2386)"/><g><path d="M10.89,10.51h2.84a.11.11,0,0,0,.1-.11V7.57a.1.1,0,0,0-.18-.07l-.78.78,0,.05a.1.1,0,0,1-.14,0L9.26,4.91a.1.1,0,0,0-.14,0l-.88.88a.11.11,0,0,0,0,.15l3.41,3.41a.11.11,0,0,1,0,.15l-.05.05-.78.78A.11.11,0,0,0,10.89,10.51Z" fill="#fff"/><path d="M6.92,10.51H4.08A.11.11,0,0,1,4,10.4V7.57a.1.1,0,0,1,.17-.07l.79.78,0,.05a.1.1,0,0,0,.14,0L8.55,4.91a.1.1,0,0,1,.14,0l.88.88a.11.11,0,0,1,0,.15L6.16,9.35a.11.11,0,0,0,0,.15l0,.05.78.78A.11.11,0,0,1,6.92,10.51Z" fill="#fff"/><path d="M6.82,13.07l2,2a.1.1,0,0,0,.14,0l2-2a.1.1,0,0,0-.07-.17H9.72a.11.11,0,0,1-.1-.1V8a.1.1,0,0,0-.1-.11H8.28A.11.11,0,0,0,8.17,8V12.8a.1.1,0,0,1-.1.1H6.89A.1.1,0,0,0,6.82,13.07Z" fill="#fff"/></g><path id="ac0a9c0c-2e8c-4843-b02b-2fadf76b27d0" d="M10.65,7.78A2.71,2.71,0,0,1,7.33,3.5l0,0a2.71,2.71,0,0,1,3.29,4.3" fill="#0078d4"/><circle cx="7.53" cy="5.55" r="0.87" fill="url(#a43242a2-4d95-4f6d-8870-2702ceb6aebc)"/><g><path d="M6.67,7l.19.3L7,7.5a5.94,5.94,0,0,1,.34-1.1.85.85,0,0,1-.45-.23A6.71,6.71,0,0,0,6.67,7Z" fill="#f2f2f2" opacity="0.55"/><path d="M7.24,4.73A4,4,0,0,1,7,3.8a2.48,2.48,0,0,0-.34.46A3.51,3.51,0,0,0,6.86,5,1,1,0,0,1,7.24,4.73Z" fill="#f2f2f2" opacity="0.55"/><path d="M8.17,6.14a.87.87,0,0,1-.48.26,4.62,4.62,0,0,0,.46.41,4.14,4.14,0,0,0,.65.39V7.13A.53.53,0,0,1,9,6.73,3.6,3.6,0,0,1,8.17,6.14Z" fill="#f2f2f2" opacity="0.55"/><path d="M10.79,7.2a4.14,4.14,0,0,1-.87-.1v0a.55.55,0,0,1-.16.39,3.84,3.84,0,0,0,1.08.08,2.93,2.93,0,0,0,.37-.42Z" fill="#f2f2f2" opacity="0.55"/></g><circle cx="9.36" cy="7.13" r="0.56" fill="url(#eedce6dd-706a-43c4-ac66-66b73578221d)"/><circle cx="10.64" cy="5.74" r="0.6" fill="#f2f2f2"/><g><path d="M9.21,4.42A4.29,4.29,0,0,1,11.09,4a2.24,2.24,0,0,0-.47-.45,4.5,4.5,0,0,0-1.49.35c-.1,0-.19.11-.29.16h0a5.85,5.85,0,0,1-.63-.93l-.34.13a5.35,5.35,0,0,0,.65,1,3.92,3.92,0,0,0-.67.55.87.87,0,0,1,.43.35,3.29,3.29,0,0,1,.61-.48,9.16,9.16,0,0,0,1.17,1,.57.57,0,0,1,.2-.32A8.44,8.44,0,0,1,9.21,4.42Z" fill="#f2f2f2" opacity="0.55"/><path d="M11.55,6.09h0l-.1,0h0l-.08,0h0l-.1-.06a.61.61,0,0,1-.2.3l.12.07h0l.11.06h0l.28.14h0a3.58,3.58,0,0,0,.09-.35Z" fill="#f2f2f2" opacity="0.55"/></g><circle cx="7.53" cy="5.55" r="0.87" fill="#f2f2f2"/><circle cx="9.36" cy="7.13" r="0.56" fill="#f2f2f2"/></symbol><symbol id="icon-app-services" viewBox="0 0 18 18"><defs><radialGradient id="e2cf8746-c9a8-4eee-86c2-4951983c6032" cx="13428.81" cy="3518.86" r="56.67" gradientTransform="translate(-2005.33 -518.83) scale(0.15)" gradientUnits="userSpaceOnUse"><stop offset="0.18" stop-color="#5ea0ef"/><stop offset="1" stop-color="#0078d4"/></radialGradient><linearGradient id="bdd213dd-d313-473c-8ff4-0133fd3a9033" x1="4.4" y1="11.48" x2="4.37" y2="7.53" gradientUnits="userSpaceOnUse"><stop offset="0" stop-color="#ccc"/><stop offset="1" stop-color="#fcfcfc"/></linearGradient><linearGradient id="afcc63c5-3649-4476-a742-bcb53a569f3c" x1="10.13" y1="15.45" x2="10.13" y2="11.9" gradientUnits="userSpaceOnUse"><stop offset="0" stop-color="#ccc"/><stop offset="1" stop-color="#fcfcfc"/></linearGradient><linearGradient id="bd873f0b-9954-4aa5-a3df-9f4c64e8729d" x1="14.18" y1="11.15" x2="14.18" y2="7.38" gradientUnits="userSpaceOnUse"><stop offset="0" stop-color="#ccc"/><stop offset="1" stop-color="#fcfcfc"/></linearGradient></defs><title>Icon-web-41</title><path id="ee75dd06-1aca-4f76-9d11-d05a284020ad" d="M14.21,15.72A8.5,8.5,0,0,1,3.79,2.28l.09-.06a8.5,8.5,0,0,1,10.33,13.5" fill="url(#e2cf8746-c9a8-4eee-86c2-4951983c6032)"/><path d="M6.69,7.23A13,13,0,0,1,15.6,3.65a8.47,8.47,0,0,0-1.49-1.44,14.34,14.34,0,0,0-4.69,1.1A12.54,12.54,0,0,0,5.34,6.13,2.76,2.76,0,0,1,6.69,7.23Z" fill="#fff" opacity="0.6"/><path d="M2.48,10.65a17.86,17.86,0,0,0-.83,2.62,7.82,7.82,0,0,0,.62.92c.18.23.35.44.55.65A17.94,17.94,0,0,1,3.9,11.37,2.76,2.76,0,0,1,2.48,10.65Z" fill="#fff" opacity="0.6"/><path d="M3.46,6.11a12,12,0,0,1-.69-2.94,8.15,8.15,0,0,0-1.1,1.45A12.69,12.69,0,0,0,2.24,7,2.69,2.69,0,0,1,3.46,6.11Z" fill="#f2f2f2" opacity="0.55"/><circle cx="4.38" cy="8.68" r="2.73" fill="url(#bdd213dd-d313-473c-8ff4-0133fd3a9033)"/><path d="M8.36,13.67A1.77,1.77,0,0,1,8.9,12.4a11.88,11.88,0,0,1-2.53-1.86,2.74,2.74,0,0,1-1.49.83,13.1,13.1,0,0,0,1.45,1.28A12.12,12.12,0,0,0,8.38,13.9,1.79,1.79,0,0,1,8.36,13.67Z" fill="#f2f2f2" opacity="0.55"/><path d="M14.66,13.88a12,12,0,0,1-2.76-.32.41.41,0,0,1,0,.11,1.75,1.75,0,0,1-.51,1.24,13.69,13.69,0,0,0,3.42.24A8.21,8.21,0,0,0,16,13.81,11.5,11.5,0,0,1,14.66,13.88Z" fill="#f2f2f2" opacity="0.55"/><circle cx="10.13" cy="13.67" r="1.78" fill="url(#afcc63c5-3649-4476-a742-bcb53a569f3c)"/><path d="M12.32,8.93a1.83,1.83,0,0,1,.61-1A25.5,25.5,0,0,1,8.47,3.79a16.91,16.91,0,0,1-2-2.92,7.64,7.64,0,0,0-1.09.42A18.14,18.14,0,0,0,7.53,4.47,26.44,26.44,0,0,0,12.32,8.93Z" fill="#f2f2f2" opacity="0.7"/><circle cx="14.18" cy="9.27" r="1.89" fill="url(#bd873f0b-9954-4aa5-a3df-9f4c64e8729d)"/><path d="M17.35,10.54,17,10.37l0,0-.3-.16-.06,0L16.38,10l-.07,0L16,9.8a1.76,1.76,0,0,1-.64.92c.12.08.25.15.38.22l.08.05.35.19,0,0,.86.45h0a8.63,8.63,0,0,0,.29-1.11Z" fill="#f2f2f2" opacity="0.55"/><circle cx="4.38" cy="8.68" r="2.73" fill="url(#bdd213dd-d313-473c-8ff4-0133fd3a9033)"/><circle cx="10.13" cy="13.67" r="1.78" fill="url(#afcc63c5-3649-4476-a742-bcb53a569f3c)"/></symbol><symbol id="icon-sql-database" viewBox="0 0 18 18"><defs><linearGradient id="ef16bf9d-a8b6-4181-b6cd-66fc5203f956" x1="2.59" y1="10.16" x2="15.41" y2="10.16" gradientUnits="userSpaceOnUse"><stop offset="0" stop-color="#005ba1"/><stop offset="0.07" stop-color="#0060a9"/><stop offset="0.36" stop-color="#0071c8"/><stop offset="0.52" stop-color="#0078d4"/><stop offset="0.64" stop-color="#0074cd"/><stop offset="0.82" stop-color="#006abb"/><stop offset="1" stop-color="#005ba1"/></linearGradient><radialGradient id="bf3846c3-4d74-4743-ab9a-f334c248bd92" cx="9.36" cy="10.57" r="7.07" gradientUnits="userSpaceOnUse"><stop offset="0" stop-color="#f2f2f2"/><stop offset="0.58" stop-color="#eee"/><stop offset="1" stop-color="#e6e6e6"/></radialGradient></defs><title>Icon-databases-130</title><path d="M9,5.14c-3.54,0-6.41-1-6.41-2.32V15.18c0,1.27,2.82,2.3,6.32,2.32H9c3.54,0,6.41-1,6.41-2.32V2.82C15.41,4.11,12.54,5.14,9,5.14Z" fill="url(#ef16bf9d-a8b6-4181-b6cd-66fc5203f956)"/><path d="M15.41,2.82c0,1.29-2.87,2.32-6.41,2.32s-6.41-1-6.41-2.32S5.46.5,9,.5s6.41,1,6.41,2.32" fill="#e8e8e8"/><path d="M13.92,2.63c0,.82-2.21,1.48-4.92,1.48S4.08,3.45,4.08,2.63,6.29,1.16,9,1.16s4.92.66,4.92,1.47" fill="#50e6ff"/><path d="M9,3a11.55,11.55,0,0,0-3.89.57A11.42,11.42,0,0,0,9,4.11a11.15,11.15,0,0,0,3.89-.58A11.84,11.84,0,0,0,9,3Z" fill="#198ab3"/><path d="M12.9,11.4V8H12v4.13h2.46V11.4ZM5.76,9.73a1.83,1.83,0,0,1-.51-.31.44.44,0,0,1-.12-.32.34.34,0,0,1,.15-.3.68.68,0,0,1,.42-.12,1.62,1.62,0,0,1,1,.29V8.11a2.58,2.58,0,0,0-1-.16,1.64,1.64,0,0,0-1.09.34,1.08,1.08,0,0,0-.42.89c0,.51.32.91,1,1.21a2.88,2.88,0,0,1,.62.36.42.42,0,0,1,.15.32.38.38,0,0,1-.16.31.81.81,0,0,1-.45.11,1.66,1.66,0,0,1-1.09-.42V12a2.17,2.17,0,0,0,1.07.24,1.88,1.88,0,0,0,1.18-.33A1.08,1.08,0,0,0,6.84,11a1.05,1.05,0,0,0-.25-.7A2.42,2.42,0,0,0,5.76,9.73ZM11,11.32a2.34,2.34,0,0,0,.33-1.26A2.32,2.32,0,0,0,11,9a1.81,1.81,0,0,0-.7-.75,2,2,0,0,0-1-.26,2.11,2.11,0,0,0-1.08.27A1.86,1.86,0,0,0,7.49,9a2.46,2.46,0,0,0-.26,1.14,2.26,2.26,0,0,0,.24,1,1.76,1.76,0,0,0,.69.74,2.06,2.06,0,0,0,1,.3l.86,1h1.21L10,12.08A1.79,1.79,0,0,0,11,11.32ZM10,11.07a.94.94,0,0,1-.76.35.92.92,0,0,1-.76-.36,1.52,1.52,0,0,1-.29-1,1.53,1.53,0,0,1,.29-1,1,1,0,0,1,.78-.37.87.87,0,0,1,.75.37,1.62,1.62,0,0,1,.27,1A1.46,1.46,0,0,1,10,11.07Z" fill="url(#bf3846c3-4d74-4743-ab9a-f334c248bd92)"/></symbol><symbol id="icon-key-vaults" viewBox="0 0 18 18"><defs><radialGradient id="fb114c93-7c16-4540-899a-0796041629e6" cx="9" cy="9" r="8.5" gradientUnits="userSpaceOnUse"><stop offset="0.18" stop-color="#5ea0ef"/><stop offset="0.56" stop-color="#5c9fee"/><stop offset="0.69" stop-color="#559ced"/><stop offset="0.78" stop-color="#4a97e9"/><stop offset="0.86" stop-color="#3990e4"/><stop offset="0.93" stop-color="#2387de"/><stop offset="0.99" stop-color="#087bd6"/><stop offset="1" stop-color="#0078d4"/></radialGradient><radialGradient id="ec478bd3-5b38-4e7f-b661-11f355578bff" cx="38.95" cy="182.07" r="9.88" gradientTransform="translate(-28.71 -163.24) scale(0.94 0.94)" gradientUnits="userSpaceOnUse"><stop offset="0.27" stop-color="#ffd70f"/><stop offset="0.49" stop-color="#ffcb12"/><stop offset="0.88" stop-color="#feac19"/><stop offset="1" stop-color="#fea11b"/></radialGradient></defs><title>Icon-security-245</title><path id="aacf8311-a317-400f-b613-74bd00da5ce3" d="M9,.5A8.5,8.5,0,1,0,17.5,9,8.51,8.51,0,0,0,9,.5ZM9,16.34A7.34,7.34,0,1,1,16.34,9,7.34,7.34,0,0,1,9,16.34Z" fill="url(#fb114c93-7c16-4540-899a-0796041629e6)"/><circle cx="9" cy="9" r="7.34" fill="#fff"/><g><path id="bd983c41-db73-40ec-a4f4-da1213fc9924" d="M13.44,7.33a1.84,1.84,0,0,0,0-2.59h0L10.29,1.58a1.83,1.83,0,0,0-2.58,0h0L4.56,4.74a1.84,1.84,0,0,0,0,2.59L7.18,10a.51.51,0,0,1,.15.36v4.88a.63.63,0,0,0,.18.44l1.2,1.2a.41.41,0,0,0,.58,0l1.16-1.16h0l.68-.68a.25.25,0,0,0,0-.34l-.49-.49a.27.27,0,0,1,0-.37l.49-.49a.25.25,0,0,0,0-.34l-.49-.49a.27.27,0,0,1,0-.37l.49-.49a.25.25,0,0,0,0-.34l-.68-.69v-.25ZM9,2.35A1,1,0,0,1,9,4.42,1,1,0,1,1,9,2.35Z" fill="url(#ec478bd3-5b38-4e7f-b661-11f355578bff)"/><path id="ad2e7e44-9bfd-4775-8bf4-8ef26a544921" d="M8.18,15.3h0a.23.23,0,0,0,.38-.17v-4a.24.24,0,0,0-.11-.2h0a.22.22,0,0,0-.34.2v4A.28.28,0,0,0,8.18,15.3Z" fill="#ff9300" opacity="0.75"/><rect id="a996fbff-3936-4b24-b407-369336c143ba" x="6.48" y="5.79" width="5.17" height="0.61" rx="0.28" fill="#ff9300" opacity="0.75"/><rect id="bb12d31c-3352-4a18-87dd-a169a4a8721d" x="6.48" y="6.78" width="5.17" height="0.61" rx="0.28" fill="#ff9300" opacity="0.75"/></g></symbol></defs><rect width="100%" height="100%" fill="#ffffff"/><text x="24" y="40" font-size="20.0" font-weight="600" fill="#202124">Baseline App Service architecture</text><text x="24" y="62" font-size="13.0" fill="#5f6368">Private endpoints + zone redundancy</text><rect x="48.0" y="90.0" width="452.0" height="936.0" rx="4" ry="4" fill="none" fill-opacity="0.35" stroke="#37474f" stroke-width="1.2"/><text x="58.0" y="108.0" font-size="11.0" font-weight="600" fill="#37474f">Production subscription</text><text x="492.0" y="108.0" text-anchor="end" font-size="9.0" fill="#37474f" opacity="0.7">subscription</text><rect x="72.0" y="142.0" width="404.0" height="860.0" rx="4" ry="4" fill="none" fill-opacity="0.35" stroke="#5f6368" stroke-width="1.0"/><text x="82.0" y="160.0" font-size="11.0" font-weight="600" fill="#5f6368">rg-web-prod (West US 2)</text><text x="468.0" y="160.0" text-anchor="end" font-size="9.0" fill="#5f6368" opacity="0.7">resource-group</text><rect x="96.0" y="314.0" width="356.0" height="664.0" rx="4" ry="4" fill="none" fill-opacity="0.35" stroke="#2b6cb0" stroke-width="1.2"/><text x="106.0" y="332.0" font-size="11.0" font-weight="600" fill="#2b6cb0">vnet-web · 10.0.0.0/16</text><text x="444.0" y="332.0" text-anchor="end" font-size="9.0" fill="#2b6cb0" opacity="0.7">vnet</text><rect x="120.0" y="366.0" width="178.0" height="196.0" rx="4" ry="4" fill="none" fill-opacity="0.35" stroke="#2b6cb0" stroke-width="1.0" stroke-dasharray="5,3"/><text x="130.0" y="384.0" font-size="11.0" font-weight="600" fill="#2b6cb0">snet-gateway · 10.0.1.0/24</text><text x="290.0" y="384.0" text-anchor="end" font-size="9.0" fill="#2b6cb0" opacity="0.7">subnet</text><rect x="120.0" y="562.0" width="178.0" height="196.0" rx="4" ry="4" fill="none" fill-opacity="0.35" stroke="#2b6cb0" stroke-width="1.0" stroke-dasharray="5,3"/><text x="130.0" y="580.0" font-size="11.0" font-weight="600" fill="#2b6cb0">snet-app · 10.0.2.0/24</text><text x="290.0" y="580.0" text-anchor="end" font-size="9.0" fill="#2b6cb0" opacity="0.7">subnet</text><rect x="120.0" y="758.0" width="308.0" height="196.0" rx="4" ry="4" fill="none" fill-opacity="0.35" stroke="#2b6cb0" stroke-width="1.0" stroke-dasharray="5,3"/><text x="130.0" y="776.0" font-size="11.0" font-weight="600" fill="#2b6cb0">snet-data · 10.0.3.0/24</text><text x="420.0" y="776.0" text-anchor="end" font-size="9.0" fill="#2b6cb0" opacity="0.7">subnet</text><path d="M209.0 534.0 L209.0 620.0" fill="none" stroke="#5f6368" stroke-width="1.2" marker-end="url(#arrow)"/><path d="M209.0 730.0 L209.0 816.0" fill="none" stroke="#5f6368" stroke-width="1.2" marker-end="url(#arrow)"/><path d="M209.0 730.0 L209.0 846.0 L309.0 846.0" fill="none" stroke="#5f6368" stroke-width="1.2" marker-end="url(#arrow)"/><path d="M209.0 620.0 L209.0 230.0 L191.0 230.0" fill="none" stroke="#5f6368" stroke-width="1.2" marker-end="url(#arrow)"/><use href="#icon-application-insights" x="137.0" y="206.0" width="48.0" height="48.0"/><text x="161.0" y="266.0" text-anchor="middle" paint-order="stroke" stroke="#ffffff" stroke-width="3" stroke-linejoin="round" font-size="11.0" fill="#202124">contoso-ai</text><use href="#icon-application-gateways" x="185.0" y="430.0" width="48.0" height="48.0"/><text x="209.0" y="490.0" text-anchor="middle" paint-order="stroke" stroke="#ffffff" stroke-width="3" stroke-linejoin="round" font-size="11.0" fill="#202124">contoso-agw</text><text x="209.0" y="502.0" text-anchor="middle" paint-order="stroke" stroke="#ffffff" stroke-width="3" stroke-linejoin="round" font-size="9.0" fill="#5f6368">WAF v2</text><use href="#icon-app-services" x="185.0" y="626.0" width="48.0" height="48.0"/><text x="209.0" y="686.0" text-anchor="middle" paint-order="stroke" stroke="#ffffff" stroke-width="3" stroke-linejoin="round" font-size="11.0" fill="#202124">contoso-web</text><text x="209.0" y="698.0" text-anchor="middle" paint-order="stroke" stroke="#ffffff" stroke-width="3" stroke-linejoin="round" font-size="9.0" fill="#5f6368">P2v3</text><text x="209.0" y="709.0" text-anchor="middle" paint-order="stroke" stroke="#ffffff" stroke-width="3" stroke-linejoin="round" font-size="9.0" fill="#5f6368">zone-redundant</text><use href="#icon-sql-database" x="185.0" y="822.0" width="48.0" height="48.0"/><text x="209.0" y="882.0" text-anchor="middle" paint-order="stroke" stroke="#ffffff" stroke-width="3" stroke-linejoin="round" font-size="11.0" fill="#202124">contoso-sql</text><text x="209.0" y="894.0" text-anchor="middle" paint-order="stroke" stroke="#ffffff" stroke-width="3" stroke-linejoin="round" font-size="9.0" fill="#5f6368">Hyperscale</text><use href="#icon-key-vaults" x="315.0" y="822.0" width="48.0" height="48.0"/><text x="339.0" y="882.0" text-anchor="middle" paint-order="stroke" stroke="#ffffff" stroke-width="3" stroke-linejoin="round" font-size="11.0" fill="#202124">contoso-kv</text><rect x="150.5" y="600.5" width="117.0" height="17.0" rx="3" ry="3" fill="#ffffff" stroke="#dadce0" stroke-width="0.8"/><text x="209.0" y="613.0" text-anchor="middle" font-size="11.0" fill="#3c4043">private endpoint</text><rect x="150.5" y="796.5" width="117.0" height="17.0" rx="3" ry="3" fill="#ffffff" stroke="#dadce0" stroke-width="0.8"/><text x="209.0" y="809.0" text-anchor="middle" font-size="11.0" fill="#3c4043">private endpoint</text><rect x="150.5" y="731.5" width="117.0" height="17.0" rx="3" ry="3" fill="#ffffff" stroke="#dadce0" stroke-width="0.8"/><text x="209.0" y="744.0" text-anchor="middle" font-size="11.0" fill="#3c4043">managed identity</text><rect x="173.5" y="400.5" width="71.0" height="17.0" rx="3" ry="3" fill="#ffffff" stroke="#dadce0" stroke-width="0.8"/><text x="209.0" y="413.0" text-anchor="middle" font-size="11.0" fill="#3c4043">telemetry</text><text x="24" y="1054" font-size="13.0" font-weight="600" fill="#5f6368">Metadata</text><text x="24" y="1070" font-size="9.0" fill="#5f6368"><tspan font-weight="600">Owner:</tspan> platform-eng</text><text x="24" y="1086" font-size="9.0" fill="#5f6368"><tspan font-weight="600">Region:</tspan> West US 2</text></svg>